<svg width="600" height="600" viewBox="0 0 600 600" fill="none" xmlns="http://www.w3.org/2000/svg">
<path d="M599.799 186.727V186.244L599.615 181.668C597.869 151.227 587.401 121.982 569.514 97.5711C551.627 73.1603 527.11 54.6613 499.013 44.3753C470.916 34.0893 440.479 32.4702 411.489 39.7196C382.498 46.969 356.234 62.7667 335.962 85.1478L335.726 84.9065H335.682L335.446 85.1924H335.402C310.279 57.4376 276.115 39.9899 239.308 36.1158C202.5 32.2416 165.573 42.2068 135.439 64.1456C135.26 57.0495 132.836 50.2036 128.529 44.6336C124.223 39.0636 118.265 35.0696 111.55 33.25L11.7778 0.352509C9.97866 -0.241129 8.02243 -0.080311 6.33936 0.799591C4.6563 1.67949 3.38425 3.20641 2.80302 5.04449L0.345024 12.8466C-0.236009 14.6847 -0.0786056 16.6834 0.782611 18.403C1.64383 20.1226 3.13832 21.4222 4.93737 22.0161L71.2945 43.8851V47.46L15.7403 29.1747L11.6291 42.1692C11.0506 44.0098 11.2101 46.0096 12.0726 47.7302C12.9351 49.4508 14.4302 50.7517 16.2302 51.3476L71.2945 69.481V73.0559L23.3242 57.1925L20.044 67.631C19.4654 69.4692 19.6239 71.4668 20.4848 73.1857C21.3457 74.9047 22.8387 76.2046 24.6363 76.8005L71.2945 92.1723V192.956C71.2945 194.888 72.0456 196.74 73.3826 198.106C74.7195 199.472 76.5328 200.24 78.4236 200.24H128.327C130.218 200.24 132.031 199.472 133.368 198.106C134.705 196.74 135.456 194.888 135.456 192.956V191.767C139.981 164.02 153.992 138.812 174.996 120.625C196 102.438 222.636 92.4513 250.168 92.4404C283.977 92.4404 304.271 130.807 335.709 130.781C367.146 130.754 387.318 92.4404 421.24 92.4404C449.548 92.4537 476.88 103.012 498.116 122.137C519.352 141.262 533.034 167.642 536.599 196.334C536.733 197.412 537.247 198.402 538.044 199.121C538.841 199.84 539.866 200.238 540.929 200.24H595.399C596.502 200.243 597.566 199.821 598.377 199.057C599.188 198.292 599.687 197.244 599.773 196.12C599.913 194.395 600 192.661 600 190.909C599.991 189.462 599.895 188.067 599.799 186.727Z" fill="url(#paint0_radial_104_904)"/>
<path d="M595.311 241.833H532.925C532.127 241.833 531.344 242.056 530.661 242.478C529.978 242.9 529.421 243.506 529.05 244.228C503.403 295.456 428.456 335.95 428.456 335.95C428.456 335.95 371.161 373.977 340.52 404.122C339.215 405.408 337.473 406.127 335.66 406.127C333.848 406.127 332.106 405.408 330.801 404.122C300.089 373.995 242.899 335.986 242.899 335.986C242.899 335.986 169.369 296.242 143.023 245.721C142.429 244.567 141.539 243.601 140.448 242.927C139.356 242.253 138.105 241.896 136.829 241.896H78.9659C77.9801 241.89 77.0041 242.097 76.1021 242.503C75.2 242.91 74.3922 243.506 73.7315 244.254C73.0708 245.001 72.5722 245.883 72.2683 246.841C71.9644 247.8 71.8621 248.813 71.9681 249.814L72.0468 250.475C76.4205 284.972 102.33 317.602 130.873 343.823C170.104 379.813 214.234 403.702 214.234 403.702C214.234 403.702 243.905 423.408 275.886 447.842C276.658 448.43 277.303 449.175 277.78 450.029C278.258 450.883 278.558 451.829 278.661 452.807C278.765 453.785 278.67 454.775 278.382 455.713C278.094 456.652 277.619 457.52 276.988 458.263L198.743 550.163C197.527 551.594 196.917 553.46 197.047 555.35C197.176 557.24 198.035 559.001 199.434 560.244L242.208 598.245C242.902 598.861 243.708 599.332 244.58 599.63C245.451 599.928 246.372 600.048 247.289 599.983C248.207 599.917 249.102 599.667 249.925 599.248C250.747 598.829 251.481 598.248 252.084 597.539L335.892 499.114C348.41 485.825 365.895 470.927 383.67 456.887C419.744 428.449 457.148 403.621 457.148 403.621C457.148 403.621 501.33 379.751 540.562 343.743C569.104 317.468 595.005 284.847 599.291 250.395C599.466 249.17 599.606 247.946 599.72 246.722C599.778 246.098 599.706 245.468 599.51 244.874C599.314 244.28 598.998 243.734 598.582 243.273C598.166 242.812 597.66 242.446 597.097 242.198C596.533 241.95 595.925 241.825 595.311 241.833Z" fill="url(#paint1_radial_104_904)"/>
<defs>
<radialGradient id="paint0_radial_104_904" cx="0" cy="0" r="1" gradientUnits="userSpaceOnUse" gradientTransform="translate(600 0.219909) rotate(127.842) scale(956.053 937.035)">
<stop offset="0.290336" stop-color="#F75074"/>
<stop offset="1" stop-color="#F98043"/>
</radialGradient>
<radialGradient id="paint1_radial_104_904" cx="0" cy="0" r="1" gradientUnits="userSpaceOnUse" gradientTransform="translate(600 0.219909) rotate(127.842) scale(956.053 937.035)">
<stop offset="0.290336" stop-color="#F75074"/>
<stop offset="1" stop-color="#F98043"/>
</radialGradient>
</defs>
</svg>
